<svg xmlns="http://www.w3.org/2000/svg" viewBox="0 0 50 50" id="whois-privacy">
  <path fill="#656766" d="M43.242 36.607H6.758a2.016 2.016 0 0 1-2.016-2.016v-24.03c0-1.114.902-2.017 2.016-2.017h36.484c1.114 0 2.016.903 2.016 2.016v24.031a2.016 2.016 0 0 1-2.016 2.016z"></path>
  <path fill="#FFF" d="M6.886 10.688h36.228v23.774H6.886z"></path>
  <path fill="#656766" d="M1.003 38.778c-.064 1.376 1.012 2.678 2.553 2.678h42.888c1.54 0 2.617-1.302 2.553-2.678H1.003z"></path>
  <path fill="#4E4C4D" d="M30.106 38.778H19.894l1.578 1.339h7.056z"></path>
  <circle cx="22.816" cy="17.281" r="3.787" fill="#EC6E62"></circle>
  <path fill="#EC6E62" d="M29.01 25.957a7.996 7.996 0 0 0-6.194-2.93 7.996 7.996 0 0 0-6.195 2.93c-1.007 1.225-.103 3.078 1.482 3.078h9.426c1.585 0 2.488-1.853 1.481-3.078z"></path>
  <path fill="#656766" d="M32.252 32.347h-5.636a.93.93 0 0 1-.93-.93v-3.885a.93.93 0 0 1 .93-.93h5.636a.93.93 0 0 1 .93.93v3.885a.93.93 0 0 1-.93.93zm-4.704-5.745V25.05c0-1.03.851-1.881 1.89-1.881 1.038 0 1.881.851 1.881 1.881v1.552h.851V25.05a2.737 2.737 0 0 0-5.474 0v1.552h.852z"></path>
  <circle cx="29.434" cy="29.474" r="1.087" fill="#E7E3E6"></circle>
</svg>
