<?xml version="1.0" standalone="no"?>
<!DOCTYPE svg PUBLIC "-//W3C//DTD SVG 20010904//EN"
 "http://www.w3.org/TR/2001/REC-SVG-20010904/DTD/svg10.dtd">
<svg version="1.0" xmlns="http://www.w3.org/2000/svg"
 width="512.000000pt" height="512.000000pt" viewBox="0 0 512.000000 512.000000"
 preserveAspectRatio="xMidYMid meet">

<g transform="translate(0.000000,512.000000) scale(0.100000,-0.100000)"
fill="#000000" stroke="none">
<path d="M2384 5110 c-1130 -81 -2072 -891 -2318 -1993 -80 -357 -80 -756 0
-1117 213 -957 977 -1721 1934 -1934 362 -80 758 -80 1120 0 956 213 1721 978
1934 1934 80 362 80 758 0 1120 -231 1041 -1107 1840 -2164 1974 -152 19 -368
26 -506 16z m409 -1284 c44 -19 83 -63 102 -115 45 -128 -28 -267 -152 -287
-104 -16 -223 93 -223 205 0 76 54 161 123 195 40 19 107 21 150 2z m659 -501
l-3 -114 143 -3 143 -3 3 -137 3 -138 -146 0 -145 0 0 -286 c0 -306 5 -346 47
-386 33 -31 128 -31 192 0 25 12 46 22 48 22 2 0 2 -64 1 -142 l-3 -143 -60
-24 c-83 -33 -239 -41 -319 -16 -106 33 -173 118 -202 254 -10 49 -14 151 -14
392 0 371 7 345 -87 333 l-54 -6 3 138 3 139 69 3 69 3 -5 114 -5 115 161 0
161 0 -3 -115z m-1398 -139 c61 -25 77 -28 141 -23 59 5 156 29 221 54 12 4
14 -19 12 -143 l-3 -149 -53 -15 -52 -15 7 -35 c5 -19 8 -69 7 -110 -2 -203
-132 -374 -328 -431 -104 -30 -135 -46 -146 -75 -25 -64 -1 -127 58 -158 15
-8 77 -28 139 -45 163 -45 216 -67 266 -111 68 -60 91 -116 91 -225 0 -156
-49 -264 -154 -338 -82 -57 -162 -78 -316 -84 -210 -9 -368 35 -462 126 -166
161 -118 447 91 542 29 13 54 25 56 26 3 2 -7 16 -21 31 -46 49 -62 92 -62
167 0 75 16 118 62 168 20 21 22 27 10 27 -28 0 -123 96 -156 158 -102 192
-76 409 68 553 100 100 205 141 355 136 82 -3 112 -8 169 -31z m819 -604 l2
-622 -156 0 -155 0 0 625 1 625 153 -2 153 -3 2 -623z"/>
<path d="M1801 2943 c-18 -9 -45 -34 -60 -57 -21 -32 -27 -53 -30 -119 -6
-131 38 -191 147 -204 73 -8 136 22 162 79 29 63 27 171 -3 229 -42 79 -137
111 -216 72z"/>
<path d="M1819 1810 c-99 -17 -139 -60 -139 -146 0 -89 79 -134 237 -134 36 0
84 5 106 12 125 37 142 189 27 245 -51 25 -160 36 -231 23z"/>
</g>
</svg>
