<?xml version="1.0" standalone="no"?>
<!DOCTYPE svg PUBLIC "-//W3C//DTD SVG 20010904//EN"
 "http://www.w3.org/TR/2001/REC-SVG-20010904/DTD/svg10.dtd">
<svg version="1.0" xmlns="http://www.w3.org/2000/svg"
 width="512.000000pt" height="512.000000pt" viewBox="0 0 512.000000 512.000000"
 preserveAspectRatio="xMidYMid meet">

<g transform="translate(0.000000,512.000000) scale(0.100000,-0.100000)"
fill="#000000" stroke="none">
<path d="M2485 5031 c-92 -24 -173 -90 -215 -176 -34 -70 -35 -200 -2 -263
l23 -43 -167 -177 c-92 -97 -173 -183 -180 -191 -10 -11 -20 -7 -58 22 -66 50
-207 121 -301 150 -304 95 -648 39 -910 -148 -70 -50 -207 -189 -252 -256
-215 -316 -240 -724 -66 -1062 21 -40 39 -75 41 -79 2 -5 -69 -8 -157 -8
l-161 0 0 -1200 0 -1200 805 0 c674 0 805 -2 805 -14 0 -7 16 -45 35 -83 43
-86 103 -144 193 -186 61 -29 76 -32 162 -32 86 0 101 3 162 32 90 42 150 100
193 186 19 38 35 76 35 83 0 12 131 14 805 14 l804 0 3 85 3 85 179 -200 c236
-263 266 -284 421 -284 77 0 98 3 145 27 71 34 143 106 177 177 24 47 27 68
27 145 0 144 -27 190 -207 352 -150 135 -541 485 -545 489 -2 1 8 24 21 51 35
70 64 165 82 267 75 440 -156 890 -562 1095 l-63 31 0 200 0 200 -736 0 c-696
0 -735 1 -730 18 3 9 10 49 16 87 37 263 -37 541 -205 763 l-55 74 156 166
c87 92 166 177 178 189 l21 22 60 -21 c73 -25 162 -20 225 12 34 17 44 19 58
8 10 -7 106 -93 214 -191 l195 -177 -20 -58 c-27 -79 -19 -163 24 -243 36 -67
68 -98 143 -137 43 -22 64 -26 136 -26 72 0 93 4 136 26 75 40 107 70 145 140
30 57 33 71 34 145 l0 81 131 71 c73 39 135 71 139 71 4 0 29 -22 55 -48 222
-225 572 -228 794 -5 110 109 161 234 161 393 0 163 -49 282 -163 396 -269
269 -728 191 -892 -150 -61 -127 -74 -237 -44 -367 9 -39 14 -72 12 -73 -1 -2
-63 -35 -136 -75 l-134 -72 -31 24 c-74 56 -117 71 -207 71 -70 1 -93 -3 -128
-22 -36 -19 -45 -21 -60 -10 -10 7 -106 93 -214 191 l-195 177 20 58 c27 79
19 163 -24 243 -36 67 -69 98 -141 135 -54 27 -159 40 -213 25z m117 -161 c48
-14 95 -61 108 -111 31 -112 -77 -220 -189 -189 -145 39 -156 245 -16 295 49
17 51 17 97 5z m1937 0 c322 -53 448 -453 211 -674 -232 -217 -609 -90 -659
223 -33 207 115 416 321 450 29 5 55 9 58 10 3 0 34 -4 69 -9z m-3216 -644
c59 -24 137 -139 182 -266 l14 -40 -239 0 -239 0 14 40 c44 125 122 241 179
266 40 17 50 17 89 0z m-376 -103 c-14 -26 -37 -83 -52 -125 l-28 -78 -129 0
-129 0 24 32 c41 52 166 146 251 189 43 21 81 37 83 35 2 -2 -7 -26 -20 -53z
m754 6 c67 -36 191 -133 226 -177 l24 -32 -129 0 -129 0 -28 78 c-15 42 -38
98 -51 124 -13 26 -24 50 -24 52 0 8 48 -12 111 -45z m1781 -59 c48 -14 95
-61 108 -111 31 -112 -77 -220 -189 -189 -145 39 -156 245 -16 295 49 17 51
17 97 5z m-2655 -339 c-4 -16 -12 -88 -18 -160 l-13 -131 -194 0 -195 0 7 53
c9 66 32 147 62 215 l23 52 167 0 167 0 -6 -29z m736 7 c7 -27 24 -172 30
-245 l4 -53 -317 0 -317 0 4 53 c6 73 23 218 30 245 l5 22 278 0 278 0 5 -22z
m523 -34 c26 -59 64 -202 64 -241 l0 -23 -193 0 -193 0 -13 131 c-6 72 -14
144 -18 160 l-5 29 166 0 167 0 25 -56z m-1277 -555 c6 -72 14 -144 18 -160
l6 -29 -167 0 -167 0 -23 53 c-30 67 -53 148 -62 215 l-7 52 195 0 194 0 13
-131z m784 79 c-6 -74 -23 -219 -30 -245 l-5 -23 -278 0 -278 0 -5 23 c-7 26
-24 171 -30 245 l-4 52 317 0 317 0 -4 -52z m557 30 c0 -40 -38 -183 -64 -242
l-25 -56 -167 0 -166 0 5 29 c4 16 12 88 18 160 l13 131 193 0 193 0 0 -22z
m1450 -394 c0 -78 -3 -95 -14 -91 -43 17 -191 29 -285 24 -525 -29 -949 -453
-978 -977 -12 -228 47 -445 175 -639 50 -75 180 -210 249 -258 l55 -38 -221
-3 c-208 -2 -224 -1 -272 19 -59 26 -121 91 -137 147 -9 29 -12 269 -12 898
l0 859 41 78 40 77 680 0 679 0 0 -96z m-2705 -141 c15 -43 38 -100 52 -126
13 -27 22 -51 20 -53 -2 -2 -40 14 -83 35 -85 43 -210 137 -251 189 l-24 32
129 0 129 0 28 -77z m610 37 c-47 -133 -129 -250 -190 -270 -49 -16 -96 1
-142 54 -38 43 -92 142 -118 216 l-14 40 239 0 239 0 -14 -40z m425 13 c-26
-33 -106 -103 -166 -144 -47 -32 -166 -91 -172 -85 -2 2 8 26 21 53 14 26 37
83 52 126 l28 77 129 0 129 0 -21 -27z m-1530 -1093 l0 -960 710 0 c693 0 712
1 772 21 69 23 105 45 160 98 l38 35 37 -35 c57 -54 92 -75 162 -99 62 -21 73
-21 660 -17 583 3 598 4 676 26 43 12 112 36 152 53 l74 31 39 -38 40 -39 0
-98 0 -98 -799 0 -798 0 -5 -73 c-10 -150 -100 -241 -238 -241 -138 0 -228 91
-238 242 l-5 72 -798 0 -799 0 0 1040 0 1040 80 0 80 0 0 -960z m3195 925
c302 -87 518 -304 611 -612 24 -78 27 -105 27 -233 0 -128 -3 -155 -27 -233
-93 -307 -306 -520 -613 -613 -78 -24 -105 -27 -233 -27 -128 0 -155 3 -233
27 -308 93 -520 305 -613 613 -24 78 -27 105 -27 233 0 129 3 155 27 235 87
289 290 503 565 595 121 41 184 50 316 45 79 -3 135 -11 200 -30z m-2891 -109
c270 -178 605 -224 901 -123 135 46 273 126 363 210 l32 31 0 -770 c0 -752 -1
-770 -21 -814 -27 -60 -64 -98 -124 -126 l-50 -24 -622 0 -623 0 0 866 0 866
46 -41 c26 -22 70 -56 98 -75z m3816 -1652 c212 -190 325 -299 336 -323 78
-161 -96 -335 -257 -257 -24 11 -133 124 -323 336 -157 175 -286 323 -286 327
1 4 25 27 55 51 30 24 73 67 97 97 24 30 47 54 51 55 4 0 152 -129 327 -286z"/>
<path d="M4375 4699 c-88 -44 -135 -120 -135 -219 0 -140 100 -240 240 -240
139 0 240 100 240 239 0 99 -49 180 -135 220 -59 28 -154 28 -210 0z m156
-168 c16 -16 29 -39 29 -51 0 -28 -52 -80 -80 -80 -12 0 -35 13 -51 29 -16 16
-29 39 -29 51 0 12 13 35 29 51 16 16 39 29 51 29 12 0 35 -13 51 -29z"/>
<path d="M3231 2470 c-157 -33 -262 -91 -376 -205 -100 -99 -146 -175 -187
-305 -33 -108 -33 -292 0 -400 41 -130 87 -206 187 -305 99 -100 175 -146 305
-187 108 -33 292 -33 400 0 130 41 206 87 305 187 100 99 146 175 187 305 33
108 33 292 0 400 -41 130 -87 206 -187 305 -98 99 -175 146 -300 185 -79 25
-260 35 -334 20z m244 -165 c110 -23 189 -68 276 -154 225 -225 225 -557 0
-782 -225 -225 -557 -225 -782 0 -86 87 -131 166 -154 276 -40 191 12 364 154
506 142 142 315 194 506 154z"/>
<path d="M2960 1760 l0 -80 80 0 80 0 0 80 0 80 -80 0 -80 0 0 -80z"/>
<path d="M3280 1760 l0 -80 80 0 80 0 0 80 0 80 -80 0 -80 0 0 -80z"/>
<path d="M3600 1760 l0 -80 80 0 80 0 0 80 0 80 -80 0 -80 0 0 -80z"/>
<path d="M720 1920 l0 -240 560 0 560 0 0 240 0 240 -560 0 -560 0 0 -240z
m960 0 l0 -80 -400 0 -400 0 0 80 0 80 400 0 400 0 0 -80z"/>
<path d="M720 1440 l0 -80 560 0 560 0 0 80 0 80 -560 0 -560 0 0 -80z"/>
<path d="M720 1120 l0 -80 400 0 400 0 0 80 0 80 -400 0 -400 0 0 -80z"/>
<path d="M1680 1120 l0 -80 80 0 80 0 0 80 0 80 -80 0 -80 0 0 -80z"/>
<path d="M4585 535 c-50 -49 -15 -135 55 -135 41 0 80 39 80 80 0 41 -39 80
-80 80 -19 0 -40 -9 -55 -25z"/>
</g>
</svg>
