<?xml version="1.0" standalone="no"?>
<!DOCTYPE svg PUBLIC "-//W3C//DTD SVG 20010904//EN"
 "http://www.w3.org/TR/2001/REC-SVG-20010904/DTD/svg10.dtd">
<svg version="1.0" xmlns="http://www.w3.org/2000/svg"
 width="64.000000pt" height="64.000000pt" viewBox="0 0 64.000000 64.000000"
 preserveAspectRatio="xMidYMid meet">

<g transform="translate(0.000000,64.000000) scale(0.100000,-0.100000)"
fill="#000000" stroke="none">
<path d="M330 604 c-19 -8 -53 -33 -75 -54 -39 -39 -41 -39 -125 -42 l-85 -3
0 -240 0 -240 129 -3 c86 -2 133 1 142 9 10 8 14 37 14 104 l0 93 63 -1 c113
-2 195 67 205 172 14 152 -132 264 -268 205z m143 -18 c44 -18 95 -78 103
-121 24 -130 -73 -236 -200 -221 -36 5 -62 2 -88 -9 -21 -8 -54 -15 -74 -15
-35 0 -36 1 -22 18 9 9 23 32 33 51 15 30 16 42 6 87 -34 148 104 268 242 210z
m-319 -111 c-4 -8 -18 -15 -34 -15 -16 0 -35 -3 -44 -6 -12 -4 -16 0 -16 15 0
19 6 21 50 21 40 0 48 -3 44 -15z m55 -95 c12 -55 0 -102 -32 -129 -10 -7 -17
-23 -17 -34 0 -19 4 -20 75 -14 l75 7 0 -55 0 -55 -125 0 -125 0 0 165 0 165
69 0 69 0 11 -50z m-89 -310 c16 0 30 -7 34 -15 4 -12 -4 -15 -44 -15 -44 0
-50 2 -50 21 0 15 4 19 16 15 9 -3 28 -6 44 -6z m160 -15 c0 -10 -11 -15 -35
-15 -26 0 -33 3 -29 15 4 9 19 15 35 15 19 0 29 -5 29 -15z"/>
<path d="M360 542 c-15 -12 -23 -30 -24 -53 -1 -21 -10 -43 -24 -57 -19 -19
-22 -32 -20 -70 l3 -47 105 0 105 0 3 51 c3 45 0 54 -21 71 -19 14 -24 26 -20
46 4 19 -2 33 -20 51 -31 31 -56 33 -87 8z m72 -19 c35 -31 16 -73 -34 -73
-38 0 -55 33 -33 66 18 28 41 31 67 7z m44 -104 c8 -6 14 -29 14 -50 l0 -39
-90 0 -90 0 0 39 c0 28 6 44 19 53 23 16 126 15 147 -3z"/>
<path d="M80 205 c0 -19 5 -35 10 -35 6 0 10 16 10 35 0 19 -4 35 -10 35 -5 0
-10 -16 -10 -35z"/>
<path d="M80 135 c0 -8 5 -15 10 -15 6 0 10 7 10 15 0 8 -4 15 -10 15 -5 0
-10 -7 -10 -15z"/>
</g>
</svg>
