<?xml version="1.0" standalone="no"?>
<!DOCTYPE svg PUBLIC "-//W3C//DTD SVG 20010904//EN"
 "http://www.w3.org/TR/2001/REC-SVG-20010904/DTD/svg10.dtd">
<svg version="1.0" xmlns="http://www.w3.org/2000/svg"
 width="512.000000pt" height="512.000000pt" viewBox="0 0 512.000000 512.000000"
 preserveAspectRatio="xMidYMid meet">

<g transform="translate(0.000000,512.000000) scale(0.100000,-0.100000)"
fill="#000000" stroke="none">
<path d="M686 5105 c-181 -46 -328 -195 -371 -376 -21 -91 -19 -333 3 -420 23
-85 73 -167 145 -235 80 -78 77 -84 -37 -84 -103 0 -159 -15 -213 -56 -45 -34
-91 -98 -103 -143 -13 -50 -110 -607 -110 -634 0 -32 35 -84 72 -107 31 -19
51 -20 352 -20 l319 0 -7 -32 c-38 -179 -41 -209 -41 -438 0 -185 4 -254 18
-325 34 -169 35 -151 -14 -159 -75 -12 -182 -71 -246 -135 -116 -115 -153
-224 -153 -446 0 -160 15 -239 61 -326 29 -54 131 -169 150 -169 5 0 9 -9 9
-19 0 -17 -10 -19 -107 -23 -92 -3 -115 -8 -159 -30 -53 -28 -103 -77 -129
-128 -14 -28 -125 -622 -125 -672 0 -37 34 -90 71 -110 32 -17 75 -18 732 -18
769 0 748 -2 787 62 11 18 20 50 20 71 0 69 -101 620 -122 665 -28 59 -108
128 -171 147 -28 8 -89 15 -139 15 -105 0 -110 8 -38 69 27 23 68 70 91 105
l42 64 61 -54 c217 -194 552 -361 841 -418 213 -42 261 -40 284 11 16 35 14
49 -11 77 -20 21 -39 27 -133 40 -352 50 -686 212 -932 449 l-73 70 0 148 c0
119 -4 159 -20 212 -22 70 -79 163 -132 214 -46 45 -144 101 -204 119 l-52 15
-16 63 c-63 254 -62 618 4 849 l11 37 300 0 c260 0 306 2 336 17 44 21 73 67
73 116 0 21 -23 169 -50 330 -39 223 -57 304 -76 342 l-26 50 34 28 c118 101
343 223 518 281 206 69 287 80 550 80 263 0 344 -11 550 -80 175 -58 400 -180
518 -281 l34 -28 -26 -50 c-19 -38 -37 -119 -76 -342 -27 -161 -50 -309 -50
-330 0 -49 29 -95 73 -116 30 -15 76 -17 336 -17 l300 0 11 -41 c31 -113 42
-200 47 -369 6 -197 -3 -299 -38 -452 l-20 -87 -52 -15 c-61 -18 -158 -74
-205 -119 -53 -51 -110 -144 -132 -214 -16 -53 -20 -93 -20 -212 l0 -148 -72
-70 c-260 -250 -595 -405 -991 -458 -59 -8 -87 -33 -87 -78 0 -76 53 -85 256
-46 312 60 645 222 870 423 l61 54 42 -64 c23 -35 64 -83 92 -106 27 -24 49
-49 49 -55 0 -10 -24 -13 -88 -13 -50 0 -111 -7 -139 -15 -63 -19 -143 -88
-171 -147 -21 -45 -122 -596 -122 -665 0 -21 9 -53 20 -71 39 -64 18 -62 784
-62 382 0 705 4 718 9 37 14 77 60 84 96 7 41 -99 652 -121 695 -26 51 -76
100 -129 128 -44 22 -67 27 -158 30 -98 4 -108 6 -108 23 0 10 4 19 8 19 19 0
123 117 151 170 46 86 61 165 61 325 0 222 -37 331 -153 446 -64 64 -171 123
-244 135 -24 4 -43 12 -43 18 0 6 10 58 22 116 19 92 22 136 22 350 0 214 -3
258 -22 350 -12 58 -22 108 -22 113 0 4 143 7 319 7 315 0 318 0 352 23 19 12
43 39 54 59 19 36 19 36 -4 175 -13 76 -29 148 -37 160 -28 44 -112 35 -131
-14 -6 -15 3 -91 23 -215 l7 -38 -652 0 -653 0 6 28 c3 15 26 144 51 287 31
176 51 268 63 285 31 42 79 60 163 60 l75 0 12 -62 c21 -115 99 -202 209 -234
167 -48 342 70 360 242 l6 54 76 0 c122 -1 155 -21 195 -123 38 -96 160 -53
142 50 -16 86 -98 178 -184 207 -28 10 -81 16 -139 16 -69 0 -93 3 -93 13 0 7
31 44 68 83 75 75 122 160 141 252 16 78 14 314 -4 391 -57 239 -282 406 -526
387 -210 -15 -388 -156 -449 -354 -17 -54 -20 -92 -20 -241 0 -159 3 -183 24
-242 30 -85 86 -169 148 -221 26 -23 47 -46 45 -52 -2 -7 -52 -14 -123 -17
l-119 -7 -77 59 c-263 202 -559 327 -888 375 -170 24 -470 15 -635 -20 -280
-59 -528 -171 -753 -340 l-97 -73 -115 5 c-63 2 -119 8 -124 13 -5 5 16 33 51
66 72 70 109 126 140 213 20 58 23 83 23 241 0 204 -13 265 -79 365 -66 100
-150 167 -260 206 -75 26 -209 32 -285 13z m248 -166 c50 -18 156 -99 156
-119 0 -13 -129 -91 -201 -120 -132 -55 -298 -75 -392 -49 -38 10 -39 11 -32
47 15 81 83 173 163 219 94 55 199 63 306 22z m3498 4 c52 -18 133 -75 155
-109 13 -20 10 -23 -54 -62 -188 -113 -382 -158 -528 -121 -41 10 -44 13 -39
38 11 51 55 130 94 170 97 99 238 131 372 84z m-3274 -468 c-3 -118 -6 -135
-31 -187 -60 -122 -186 -200 -322 -199 -194 0 -337 138 -352 338 l-6 76 38 -7
c55 -11 211 -9 272 3 113 22 280 90 368 150 l30 21 3 -33 c2 -17 2 -90 0 -162z
m3511 32 c-4 -149 -5 -154 -37 -219 -71 -144 -219 -221 -378 -196 -79 12 -143
48 -202 112 -63 70 -92 142 -92 232 l0 66 43 -7 c75 -13 213 -7 299 14 94 22
218 73 293 119 80 49 78 53 74 -121z m-3864 -572 c33 0 77 3 98 7 l39 7 -4
-95 -3 -96 -37 -34 c-32 -29 -45 -34 -85 -34 -60 0 -109 29 -129 75 -8 19 -14
67 -14 109 l0 75 38 -7 c20 -4 64 -7 97 -7z m3510 0 c33 0 77 3 98 7 l37 7 0
-75 c0 -42 -6 -90 -14 -109 -20 -46 -69 -75 -129 -75 -40 0 -53 5 -85 34 l-37
34 -3 96 -4 95 39 -7 c21 -4 65 -7 98 -7z m-3795 -131 c0 -134 119 -259 259
-271 156 -14 296 99 317 256 l7 51 46 0 c41 0 49 -3 65 -30 16 -28 115 -548
116 -607 l0 -23 -585 0 c-469 0 -585 3 -585 13 0 7 22 138 49 291 42 238 52
281 73 303 35 39 76 52 161 53 l77 0 0 -36z m390 -1886 c19 -6 51 -20 70 -31
38 -22 110 -87 110 -99 0 -11 -107 -78 -179 -110 -99 -45 -202 -68 -300 -67
-106 2 -145 9 -149 30 -6 32 40 129 84 178 91 101 230 139 364 99z m3474 7
c57 -9 130 -49 178 -97 l41 -41 -24 -18 c-50 -39 -227 -120 -303 -139 -87 -22
-218 -26 -279 -9 -34 9 -37 12 -31 37 22 93 102 195 186 238 48 24 136 44 173
38 11 -1 38 -6 59 -9z m-3226 -480 c-3 -118 -6 -135 -31 -187 -106 -215 -380
-270 -556 -112 -70 63 -111 148 -118 249 l-6 77 29 -5 c194 -39 438 18 649
151 l30 19 3 -31 c2 -17 2 -89 0 -161z m3511 32 c-4 -149 -5 -154 -37 -219
-87 -177 -291 -252 -464 -171 -128 60 -199 166 -206 306 l-4 78 38 -8 c69 -14
234 -6 316 16 96 25 207 71 278 115 30 19 61 35 69 35 11 1 12 -28 10 -152z
m-3899 -574 c36 -3 89 -1 118 5 l54 10 -4 -94 c-3 -87 -5 -95 -32 -123 -36
-38 -82 -52 -131 -41 -75 17 -105 70 -105 186 0 68 2 75 18 69 9 -3 46 -9 82
-12z m3570 0 c41 3 83 8 93 12 15 6 17 -1 17 -69 0 -116 -30 -169 -105 -186
-49 -11 -95 3 -131 41 -27 28 -29 36 -32 124 l-4 93 44 -10 c23 -5 77 -8 118
-5z m-3817 -147 c18 -172 193 -291 358 -242 71 20 132 65 169 122 28 45 32 56
45 137 l6 37 77 0 c85 0 133 -18 164 -60 12 -17 33 -114 67 -310 28 -156 49
-286 47 -287 -2 -2 -295 -2 -652 -1 l-650 3 48 275 c27 159 55 289 65 309 27
52 73 71 169 71 l81 0 6 -54z m3501 7 c32 -239 300 -343 484 -188 43 36 92
138 92 192 l0 43 56 0 55 0 19 -42 c10 -24 39 -164 65 -313 25 -148 48 -278
51 -287 5 -17 -28 -18 -591 -18 l-595 0 5 22 c3 13 25 139 50 280 24 142 51
270 59 286 29 55 64 70 172 71 l71 1 7 -47z"/>
<path d="M2405 3516 c-295 -68 -521 -267 -616 -543 -35 -102 -16 -163 50 -163
43 0 67 27 91 105 55 178 179 317 355 402 100 47 199 66 310 59 110 -7 176
-25 279 -79 143 -74 255 -207 313 -372 24 -71 28 -94 28 -205 0 -105 -4 -136
-23 -195 -60 -181 -176 -314 -350 -404 -114 -58 -110 -53 -222 -248 -29 -51
-56 -93 -60 -93 -5 0 -38 53 -76 118 -96 167 -93 164 -206 223 -178 92 -298
232 -353 413 -34 110 -94 137 -147 65 -19 -25 -19 -28 -3 -90 23 -92 85 -214
149 -296 67 -86 160 -161 273 -222 l86 -46 92 -160 c98 -170 122 -195 185
-195 63 0 87 25 185 195 l93 160 90 50 c148 82 223 149 311 278 48 71 89 166
112 265 28 115 23 301 -11 407 -87 275 -293 478 -562 556 -94 27 -287 35 -373
15z"/>
<path d="M2211 2764 c-24 -30 -26 -43 -10 -77 11 -24 47 -47 73 -47 7 0 25 9
40 21 33 26 36 79 6 109 -30 30 -83 27 -109 -6z"/>
<path d="M2509 2772 c-33 -27 -30 -78 5 -109 34 -29 58 -29 92 0 53 46 24 127
-46 127 -15 0 -38 -8 -51 -18z"/>
<path d="M2800 2770 c-15 -15 -20 -31 -18 -57 8 -89 122 -94 144 -6 16 62 -79
110 -126 63z"/>
</g>
</svg>
