<svg xmlns="http://www.w3.org/2000/svg" viewBox="0 0 64 64" id="data">
  <line x1="14" x2="50" y1="22" y2="22" fill="none" stroke="#37a849" stroke-linecap="round" stroke-linejoin="round" stroke-width="2px"></line>
  <line x1="14" x2="50" y1="34" y2="34" fill="none" stroke="#37a849" stroke-linecap="round" stroke-linejoin="round" stroke-width="2px"></line>
  <path d="M50,46V12a2,2,0,0,0-2-2H16a2,2,0,0,0-2,2V46Z" fill="none" stroke="#37a849" stroke-linecap="round" stroke-linejoin="round" stroke-width="2px"></path>
  <circle cx="43" cy="16" r="2" fill="#37a849"></circle>
  <circle cx="43" cy="28" r="2" fill="#37a849"></circle>
  <circle cx="43" cy="40" r="2" fill="#37a849"></circle>
  <line x1="40" x2="24" y1="54" y2="54" fill="none" stroke="#37a849" stroke-linecap="round" stroke-linejoin="round" stroke-width="2px"></line>
  <line x1="36" x2="35.95" y1="40" y2="40" fill="none" stroke="#37a849" stroke-linecap="round" stroke-linejoin="round" stroke-width="2px"></line>
  <line x1="31.39" x2="24.33" y1="40" y2="40" fill="none" stroke="#37a849" stroke-linecap="round" stroke-linejoin="round" stroke-width="2px" stroke-dasharray=".11 4.56"></line>
  <line x1="22.05" x2="22" y1="40" y2="40" fill="none" stroke="#37a849" stroke-linecap="round" stroke-linejoin="round" stroke-width="2px"></line>
  <line x1="36" x2="35.95" y1="28" y2="28" fill="none" stroke="#37a849" stroke-linecap="round" stroke-linejoin="round" stroke-width="2px"></line>
  <line x1="31.39" x2="24.33" y1="28" y2="28" fill="none" stroke="#37a849" stroke-linecap="round" stroke-linejoin="round" stroke-width="2px" stroke-dasharray=".11 4.56"></line>
  <line x1="22.05" x2="22" y1="28" y2="28" fill="none" stroke="#37a849" stroke-linecap="round" stroke-linejoin="round" stroke-width="2px"></line>
  <line x1="36" x2="35.95" y1="16" y2="16" fill="none" stroke="#37a849" stroke-linecap="round" stroke-linejoin="round" stroke-width="2px"></line>
  <line x1="31.39" x2="24.33" y1="16" y2="16" fill="none" stroke="#37a849" stroke-linecap="round" stroke-linejoin="round" stroke-width="2px" stroke-dasharray=".11 4.56"></line>
  <line x1="22.05" x2="22" y1="16" y2="16" fill="none" stroke="#37a849" stroke-linecap="round" stroke-linejoin="round" stroke-width="2px"></line>
  <line x1="32" x2="32" y1="46" y2="54" fill="none" stroke="#37a849" stroke-linecap="round" stroke-linejoin="round" stroke-width="2px"></line>
</svg>
