<?xml version="1.0" standalone="no"?>
<!DOCTYPE svg PUBLIC "-//W3C//DTD SVG 20010904//EN"
 "http://www.w3.org/TR/2001/REC-SVG-20010904/DTD/svg10.dtd">
<svg version="1.0" xmlns="http://www.w3.org/2000/svg"
 width="512.000000pt" height="512.000000pt" viewBox="0 0 512.000000 512.000000"
 preserveAspectRatio="xMidYMid meet">

<g transform="translate(0.000000,512.000000) scale(0.100000,-0.100000)"
fill="#000000" stroke="none">
<path d="M252 4679 c-46 -14 -118 -88 -131 -135 -8 -27 -11 -483 -11 -1462 0
-1262 2 -1427 15 -1460 20 -47 50 -78 100 -105 40 -22 42 -22 867 -25 l828 -2
0 -320 0 -320 640 0 640 0 0 320 0 320 828 2 c825 3 827 3 867 25 95 50 115
99 115 273 l0 130 -49 0 -48 0 -5 -83 c-5 -100 -32 -156 -96 -202 l-44 -30
-1033 -3 -1034 -2 -138 104 c-76 57 -167 129 -203 160 l-65 56 -1042 0 -1043
0 0 1253 c0 1197 1 1254 19 1292 10 22 31 52 47 67 58 54 81 58 354 58 l251 0
-3 48 -3 47 -295 2 c-166 1 -310 -3 -328 -8z"/>
<path d="M540 3575 l0 -55 418 1 417 0 -105 54 -105 54 -312 0 -313 1 0 -55z"/>
<path d="M3520 2723 l0 -267 53 52 52 52 160 -160 160 -160 82 82 83 83 -287
287 -287 287 99 4 100 3 -107 2 -108 2 0 -267z"/>
<path d="M540 2400 l0 -50 418 1 417 0 -95 49 -95 49 -322 0 -323 1 0 -50z"/>
<path d="M4160 2400 l0 -50 203 1 202 0 -95 49 -95 49 -107 0 -108 1 0 -50z"/>
<path d="M1648 738 c-21 -5 -57 -27 -82 -49 -53 -47 -76 -106 -76 -196 l0 -63
1070 0 1070 0 0 64 c0 79 -21 141 -63 185 -63 66 -11 63 -991 66 -569 2 -904
-1 -928 -7z"/>
</g>
</svg>
