<svg xmlns="http://www.w3.org/2000/svg" xml:space="preserve" enable-background="new 0 0 50 50" viewBox="0 0 50 50" id="shared-folder">
  <path fill="#666" d="M25.00019,48.46294c-0.27637,0-0.5-0.22363-0.5-0.5V37.12066c0-0.27637,0.22363-0.5,0.5-0.5
			s0.5,0.22363,0.5,0.5v10.84229C25.50019,48.23931,25.27655,48.46294,25.00019,48.46294z"></path>
  <path fill="#666" d="M40.40644,48.46392H9.59394c-0.27637,0-0.5-0.22363-0.5-0.5s0.22363-0.5,0.5-0.5h30.8125
			c0.27637,0,0.5,0.22363,0.5,0.5S40.6828,48.46392,40.40644,48.46392z"></path>
  <path fill="#ff4848" d="M29.75386,47.96381L29.75386,47.96381c0,1.06039-0.85962,1.92001-1.92,1.92001h-5.66773
			c-1.06039,0-1.92-0.85961-1.92-1.92v0c0-1.06039,0.85961-1.92,1.92-1.92h5.66773
			C28.89425,46.04381,29.75386,46.90343,29.75386,47.96381z"></path>
  <path fill="#f93" d="M46.76744,4.09585H24.87426c-0.34752,0-0.67521-0.16185-0.88643-0.43781l-2.37579-3.10404
			c-0.21122-0.27596-0.53891-0.43781-0.88643-0.43781h-9.60608c-0.34116,0-0.6636,0.15601-0.87532,0.42353L7.76498,3.67232
			C7.55326,3.93984,7.23082,4.09585,6.88966,4.09585h-3.6571c-1.23301,0-2.23256,0.99955-2.23256,2.23256v12.89301h48V6.32841
			C49,5.0954,48.00045,4.09585,46.76744,4.09585z"></path>
  <path fill="#e5e8f9" d="M44.44186,10.94899v5.48172H5.55814v-5.48172c0-0.92476,0.74966-1.67442,1.67442-1.67442h35.53488
			C43.69219,9.27457,44.44186,10.02423,44.44186,10.94899z"></path>
  <path fill="#fc3" d="M1,15.87257v22.91717c0,1.23301,0.99955,2.23256,2.23256,2.23256h43.53488
			C48.00045,41.0223,49,40.02275,49,38.78974V15.87257c0-1.23301-0.99955-2.23256-2.23256-2.23256H3.23256
			C1.99955,13.64001,1,14.63956,1,15.87257z"></path>
  <path fill="#fcb910" d="M43.41718 19.48882H31.00604c-.27637 0-.5-.22363-.5-.5s.22363-.5.5-.5h12.41113c.27637 0 .5.22363.5.5S43.69355 19.48882 43.41718 19.48882zM43.41718 22.75737H31.00604c-.27637 0-.5-.22363-.5-.5s.22363-.5.5-.5h12.41113c.27637 0 .5.22363.5.5S43.69355 22.75737 43.41718 22.75737z"></path>
  <path fill="#fff" d="M27.05487 6.13433h-2.22559c-.1377 0-.25-.11182-.25-.25s.1123-.25.25-.25h2.22559c.1377 0 .25.11182.25.25S27.19257 6.13433 27.05487 6.13433zM42.67206 6.13433H29.22089c-.1377 0-.25-.11182-.25-.25s.1123-.25.25-.25h13.45117c.1377 0 .25.11182.25.25S42.80976 6.13433 42.67206 6.13433z"></path>
  <g>
    <path fill="#fff" d="M2.90058 21.28472c-.1377 0-.25-.11182-.25-.25v-2.22656c0-.13818.1123-.25.25-.25s.25.11182.25.25v2.22656C3.15058 21.1729 3.03827 21.28472 2.90058 21.28472zM2.90058 33.40776c-.1377 0-.25-.11182-.25-.25v-9.95752c0-.13818.1123-.25.25-.25s.25.11182.25.25v9.95752C3.15058 33.29595 3.03827 33.40776 2.90058 33.40776z"></path>
  </g>
</svg>
