<?xml version="1.0" standalone="no"?>
<!DOCTYPE svg PUBLIC "-//W3C//DTD SVG 20010904//EN"
 "http://www.w3.org/TR/2001/REC-SVG-20010904/DTD/svg10.dtd">
<svg version="1.0" xmlns="http://www.w3.org/2000/svg"
 width="512.000000pt" height="512.000000pt" viewBox="0 0 512.000000 512.000000"
 preserveAspectRatio="xMidYMid meet">

<g transform="translate(0.000000,512.000000) scale(0.100000,-0.100000)"
fill="#000000" stroke="none">
<path d="M1365 5016 c-275 -72 -319 -110 -277 -239 11 -35 18 -74 15 -90 -7
-38 -53 -82 -106 -102 -40 -15 -47 -15 -78 -1 -19 9 -49 27 -68 41 -45 33 -99
33 -139 0 -36 -30 -118 -148 -166 -239 -52 -99 -39 -148 51 -187 50 -21 73
-60 73 -124 0 -88 -47 -135 -135 -135 -109 0 -141 -50 -130 -204 10 -146 37
-244 76 -279 33 -30 51 -31 147 -11 62 12 118 -32 141 -114 12 -39 -10 -88
-59 -129 -89 -77 -75 -147 55 -272 98 -94 167 -141 207 -141 32 0 88 25 88 40
0 5 14 25 31 44 39 45 84 55 145 31 65 -25 84 -60 84 -155 0 -86 14 -114 64
-135 45 -19 223 -38 311 -33 66 3 78 7 102 31 23 23 28 38 34 102 5 61 10 80
30 101 72 78 175 70 219 -16 22 -43 63 -70 106 -70 35 0 166 77 238 140 l57
50 960 0 959 0 0 145 0 145 -55 0 c-42 0 -55 -3 -55 -15 0 -19 -5 -19 -34 0
-20 13 -133 15 -919 13 -856 -3 -897 -2 -897 15 0 29 38 95 65 113 20 13 37
15 78 10 128 -17 131 -17 165 4 50 31 88 138 112 312 9 66 9 81 -5 101 -18 28
-72 53 -130 61 -87 12 -133 113 -83 186 15 22 39 40 68 51 24 9 57 31 73 49
25 29 29 39 25 79 -8 78 -107 278 -167 335 -26 25 -35 28 -75 24 -27 -3 -64
-18 -92 -37 -53 -35 -70 -37 -118 -17 -83 34 -113 133 -62 200 39 52 37 115
-6 151 -60 51 -235 126 -325 141 -58 9 -103 -26 -125 -96 -24 -74 -55 -100
-119 -100 -28 0 -64 7 -80 16 -35 17 -68 82 -69 131 0 33 -48 93 -75 93 -7 0
-19 2 -27 5 -7 2 -53 -6 -103 -19z m460 -576 c244 -75 419 -281 454 -534 27
-196 -42 -390 -193 -542 -202 -203 -476 -248 -736 -121 -67 32 -102 58 -165
122 -205 204 -251 485 -124 745 83 169 258 304 444 345 91 19 227 13 320 -15z
m670 -1320 c10 -11 16 -20 13 -20 -3 0 -13 9 -23 20 -10 11 -16 20 -13 20 3 0
13 -9 23 -20z"/>
<path d="M4055 3986 c-157 -73 -189 -273 -63 -393 45 -43 101 -65 168 -65 94
0 166 43 218 131 22 37 27 58 26 106 -2 181 -186 297 -349 221z"/>
<path d="M1915 2639 c-46 -23 -50 -42 -53 -278 -4 -251 -1 -283 33 -317 26
-26 90 -33 126 -14 44 24 49 55 49 298 0 142 -4 241 -11 261 -18 51 -90 76
-144 50z"/>
<path d="M2288 2635 c-41 -23 -48 -67 -48 -313 0 -236 5 -268 49 -292 25 -13
87 -13 112 0 44 24 49 56 49 292 0 124 -5 240 -11 260 -16 61 -89 86 -151 53z"/>
<path d="M2668 2634 c-44 -23 -50 -64 -46 -327 l3 -239 28 -24 c39 -33 108
-34 142 0 34 34 37 66 33 317 -3 239 -7 256 -55 278 -33 15 -73 13 -105 -5z"/>
<path d="M4091 2539 c-58 -18 -115 -64 -143 -116 -33 -63 -41 -109 -27 -171
31 -146 191 -230 327 -172 73 32 137 104 153 174 22 100 -36 217 -132 267 -46
23 -132 32 -178 18z"/>
<path d="M1890 1605 l0 -135 1255 0 1255 0 0 135 0 135 -1255 0 -1255 0 0
-135z"/>
<path d="M1923 1190 c-12 -5 -30 -21 -40 -36 -16 -25 -18 -56 -21 -264 -2
-209 -1 -239 15 -270 33 -65 114 -77 164 -24 l24 26 0 259 0 259 -26 25 c-28
28 -82 40 -116 25z"/>
<path d="M2311 1191 c-13 -3 -34 -19 -45 -34 -20 -27 -21 -40 -21 -283 l0
-254 28 -27 c39 -40 105 -40 144 0 l28 27 3 233 c3 239 -2 290 -35 319 -22 19
-70 28 -102 19z"/>
<path d="M2685 1191 c-11 -5 -29 -19 -40 -31 -19 -21 -20 -36 -20 -280 l0
-258 24 -26 c50 -53 131 -41 163 24 16 30 18 65 18 250 0 222 -7 275 -39 304
-22 20 -78 29 -106 17z"/>
<path d="M4055 1091 c-56 -25 -111 -90 -129 -152 -9 -29 -16 -60 -16 -69 0
-42 34 -125 66 -160 54 -60 111 -83 193 -78 85 4 151 42 198 111 41 62 50 118
28 192 -20 71 -89 144 -151 163 -59 17 -142 15 -189 -7z"/>
<path d="M1940 228 c0 -105 57 -146 186 -135 99 7 134 43 134 137 l0 50 -160
0 -160 0 0 -52z"/>
<path d="M4040 219 c0 -53 3 -64 28 -89 33 -32 96 -46 172 -37 85 10 120 50
120 136 l0 51 -160 0 -160 0 0 -61z"/>
</g>
</svg>
