<svg xmlns="http://www.w3.org/2000/svg" width="40.959" height="40.959" fill-rule="evenodd" clip-rule="evenodd" image-rendering="optimizeQuality" shape-rendering="geometricPrecision" text-rendering="geometricPrecision" viewBox="0 0 1084 1084" id="growth-analityc">
  <path fill="#fca479" d="M20 818c74-53 52-153 71-57 3 15 35 39 49 46 17-10-2-44 121-124-1 1 16-107 52-84 64 40 56-97 135-137 48-23 43-192 90-59 22 4 84 169 99 80 20-117 100 138 113-19 4-57 118-255 124-245 96 150 43 8 146-79 10-9 21-28 27-43 7-16 16 955 16 955H20s-7-234 0-234z"></path>
  <path fill="#779eba" d="M255 818H151v105h104V818zm0-120H151v104h104V698zm0-120H151v104h104V578zm0-120H151v104h104V458zm0-121H151v104h104V337zm0-120H151v104h104V217zm0-120H151v104h104V97zm121 721H271v105h105V818zm0-120H271v104h105V698zm0-120H271v104h105V578zm0-120H271v104h105V458zm0-121H271v104h105V337zm0-120H271v104h105V217zm0-120H271v104h105V97zm120 721H392v105h104V818zm0-120H392v104h104V698zm0-120H392v104h104V578zm0-120H392v104h104V458zm0-121H392v104h104V337zm0-120H392v104h104V217zm0-120H392v104h104V97zm120 721H512v105h104V818zm0-120H512v104h104V698zm0-120H512v104h104V578zm0-120H512v104h104V458zm0-121H512v104h104V337zm0-120H512v104h104V217zm0-120H512v104h104V97zm121 721H632v105h105V818zm0-120H632v104h105V698zm0-120H632v104h105V578zm0-120H632v104h105V458zm0-121H632v104h105V337zm0-120H632v104h105V217zm0-120H632v104h105V97zm120 721H753v105h104V818zm0-120H753v104h104V698zm0-120H753v104h104V578zm0-120H753v104h104V458zm0-121H753v104h104V337zm0-120H753v104h104V217zm0-120H753v104h104V97zm120 721H873v105h104V818zm0-120H873v104h104V698zm0-120H873v104h104V578zm0-120H873v104h104V458zm0-121H873v104h104V337zm0-120H873v104h104V217zm0-120H873v104h104V97zM13 939c-5 0-9-4-9-8 0-5 4-8 9-8h122V818H13c-5 0-9-3-9-8 0-4 4-8 9-8h122V698H13c-5 0-9-4-9-8s4-8 9-8h122V578H13c-5 0-9-4-9-9 0-3 4-7 9-7h122V458H13c-5 0-9-4-9-9 0-4 4-8 9-8h122V337H13c-5 0-9-4-9-8s4-8 9-8h122V217H13c-5 0-9-4-9-9 0-3 4-7 9-7h122V97H13c-5 0-9-4-9-9 0-4 4-7 9-7h122V32c0-4 4-7 8-7s8 3 8 7v49h104V32c0-4 4-7 8-7 5 0 8 3 8 7v49h105V32c0-4 3-7 7-7 5 0 9 3 9 7v49h104V32c0-4 4-7 8-7s8 3 8 7v49h104V32c0-4 4-7 8-7 5 0 8 3 8 7v49h105V32c0-4 3-7 7-7 5 0 9 3 9 7v49h104V32c0-4 4-7 7-7 5 0 9 3 9 7v49h104V32c0-4 4-7 9-7 3 0 7 3 7 7v49h54c5 0 8 3 8 7 0 5-3 9-8 9h-54v104h54c5 0 8 4 8 7 0 5-3 9-8 9h-54v104h54c5 0 8 4 8 8s-3 8-8 8h-54v104h54c5 0 8 4 8 8 0 5-3 9-8 9h-54v104h54c5 0 8 4 8 7 0 5-3 9-8 9h-54v104h54c5 0 8 4 8 8s-3 8-8 8h-54v104h54c5 0 8 4 8 8 0 5-3 8-8 8h-54v105h54c5 0 8 3 8 8 0 4-3 8-8 8h-54v113c0 3-4 7-7 7-5 0-9-4-9-7V939H873v113c0 3-4 7-9 7-3 0-7-4-7-7V939H753v113c0 3-4 7-9 7-4 0-7-4-7-7V939H632v113c0 3-3 7-8 7-4 0-8-4-8-7V939H512v113c0 3-4 7-8 7s-8-4-8-7V939H392v113c0 3-4 7-9 7-4 0-7-4-7-7V939H271v113c0 3-3 7-8 7-4 0-8-4-8-7V939H151v113c0 3-4 7-8 7s-8-4-8-7V939H13z"></path>
  <path fill="#ff6a1d" d="M930 305c-18 0-34-16-58-52-6 9-14 22-24 39-5 10-18 13-28 7-9-5-13-18-7-27 42-74 49-74 60-74 7-1 15 4 18 10 18 28 29 43 35 50 2-4 4-9 5-14 12-32 29-80 76-119 6-6 15-20 22-37 4-10 16-14 26-10 11 4 15 16 11 27-5 10-17 36-33 50-38 33-53 73-63 103-9 24-16 45-37 47h-3zM20 839c-6 0-12-3-16-9-7-9-5-21 4-28 33-24 44-60 49-77 3-10 8-25 25-25 18 1 20 13 28 50l1 7c2 4 12 13 22 21 6-12 15-29 38-51 8-8 21-8 29 0s8 21 0 29c-22 21-28 35-32 45-4 8-7 17-18 23-6 4-14 5-20 1-1 0-35-21-51-44-10 18-24 38-47 54-3 3-7 4-12 4zm208-113c-6 0-12-3-16-9-7-9-5-21 4-28 8-6 17-12 26-18 4-29 22-69 28-77 18-23 39-22 54-12 6 3 10 4 11 4 7-2 17-25 25-42 16-35 36-78 78-100 12-6 23-38 30-58 9-30 17-54 40-54h1c20 0 32 20 45 57 11 8 20 24 36 49 7 12 18 31 27 43v-1c2-12 7-42 30-48 24-6 42 16 61 39 5 6 12 14 17 20 2-6 3-15 4-29 2-16 10-41 25-75 4-11 16-15 27-11 10 5 15 17 10 27-17 39-20 56-21 63-3 32-8 62-32 70-24 7-43-16-61-39-5-6-12-15-18-20 0 2-1 5-2 10-1 9-6 38-30 42-27 5-47-28-72-70-8-13-20-32-25-38-5-2-10-6-12-12-3-9-6-16-8-21-1 3-3 7-4 11-10 32-22 68-49 82-30 15-46 49-60 80-14 30-26 57-51 64-13 4-27 1-42-8-10 9-21 49-23 66 0 7-3 13-9 17-12 8-22 15-32 22-3 3-8 4-12 4zm570-363c-3 0-7-1-10-3-10-5-14-17-8-27l5-10c5-10 17-14 27-8 10 5 14 17 9 27l-5 10c-4 7-11 11-18 11z"></path>
  <path fill="#385366" d="M1063 1072H20c-11 0-20-9-20-20V32c0-11 9-20 20-20 12 0 21 9 21 20v999h1022c12 0 21 9 21 21 0 11-9 20-21 20z"></path>
</svg>
