<svg xmlns="http://www.w3.org/2000/svg" viewBox="0 0 64 64" id="confidential-information">
  <path fill="#2b2f64" d="M46.77 49.46c0 .27-.22.49-.49.49H17.72a.49.49 0 0 1-.49-.49c0-.28.22-.5.49-.5h28.56c.27 0 .49.22.49.5zm0 3.65c0 .27-.22.49-.49.49H17.72a.49.49 0 0 1 0-.98h28.56c.27 0 .49.22.49.49zm0 3.66c0 .27-.22.49-.49.49H17.72a.49.49 0 0 1 0-.98h28.56c.27 0 .49.22.49.49zm0 3.66c0 .27-.22.49-.49.49H17.72c-.27 0-.49-.22-.49-.49s.22-.5.49-.5h28.56a.5.5 0 0 1 .49.5z"></path>
  <path fill="#2b2f64" d="M57.68 20.82h-4.42V8.47a.49.49 0 0 0-.49-.49h-3.82V4.47a.47.47 0 0 0-.15-.35L44.82.15a.47.47 0 0 0-.35-.15H15.55c-.28 0-.5.22-.5.49v7.49h-3.82a.49.49 0 0 0-.49.49v12.35H6.32a2.72 2.72 0 0 0-2.71 2.72v20.41c0 1.49 1.22 2.7 2.71 2.7h6.2v5.5c0 1.03.6 1.98 1.51 2.43l-1.5 8.85c-.03.14.01.29.11.4.09.11.23.17.37.17h37.98c.14 0 .28-.06.38-.17.09-.11.13-.26.11-.4l-1.51-8.85a2.73 2.73 0 0 0 1.51-2.43v-5.5h6.2a2.71 2.71 0 0 0 2.71-2.7V23.54c0-1.5-1.22-2.72-2.71-2.72zM48.95 8.96h3.33v11.86h-3.33V8.96zm-32.91-.45c0-.01.01-.03.01-.04 0-.01-.01-.02-.01-.04V.99h28.23l3.69 3.68v16.15H16.04V8.51zm-4.32.45h3.33v11.86h-3.33V8.96zm38.69 54.06H13.6l2.73-16.15h31.34l2.74 16.15zm.09-10.87c0 .55-.27 1.06-.7 1.38l-1.23-7.24a.494.494 0 0 0-.49-.41H15.92c-.24 0-.45.17-.49.41l-1.22 7.24c-.43-.32-.71-.83-.71-1.38V40.6c0-.96.78-1.73 1.73-1.73h33.54c.96 0 1.73.77 1.73 1.73v11.55zm8.9-8.2c0 .95-.77 1.72-1.72 1.72h-6.2V40.6c0-1.5-1.21-2.72-2.71-2.72H15.23c-1.5 0-2.71 1.22-2.71 2.72v5.07h-6.2c-.95 0-1.72-.77-1.72-1.72V23.54c0-.96.77-1.74 1.72-1.74H57.68c.95 0 1.72.78 1.72 1.74v20.41z"></path>
  <path fill="#ffdc7d" d="M50.5 40.6v11.55c0 .55-.27 1.06-.7 1.38l-1.23-7.24a.494.494 0 0 0-.49-.41H15.92c-.24 0-.45.17-.49.41l-1.22 7.24c-.43-.32-.71-.83-.71-1.38V40.6c0-.96.78-1.73 1.73-1.73h33.54c.96 0 1.73.77 1.73 1.73z"></path>
  <path fill="#4fbee6" d="M57.68 21.8H6.32c-.95 0-1.72.78-1.72 1.74v20.41c0 .95.77 1.72 1.72 1.72h6.2V40.6c0-1.5 1.21-2.72 2.71-2.72h33.54c1.5 0 2.71 1.22 2.71 2.72v5.07h6.2c.95 0 1.72-.77 1.72-1.72V23.54c0-.96-.77-1.74-1.72-1.74zm-17.95 5.7h-5.02c-.98 0-1.78-.8-1.78-1.78s.8-1.78 1.78-1.78h5.02c.98 0 1.78.8 1.78 1.78s-.8 1.78-1.78 1.78zm10.46 0h-5.02c-.98 0-1.78-.8-1.78-1.78s.8-1.78 1.78-1.78h5.02c.98 0 1.78.8 1.78 1.78s-.8 1.78-1.78 1.78zm5.73 0c-.98 0-1.78-.8-1.78-1.78s.8-1.78 1.78-1.78 1.78.8 1.78 1.78-.8 1.78-1.78 1.78z"></path>
  <path fill="#ffdc7d" d="M11.72 8.96h3.33v11.86h-3.33zM48.95 8.96h3.33v11.86h-3.33z"></path>
  <path fill="#ededee" d="M47.67 46.87H16.33L13.6 63.02h36.81l-2.74-16.15zm-1.39 14.05H17.72c-.27 0-.49-.22-.49-.49s.22-.5.49-.5h28.56c.27 0 .49.23.49.5s-.22.49-.49.49zm0-3.66H17.72a.49.49 0 0 1 0-.98h28.56a.49.49 0 0 1 0 .98zm0-3.66H17.72a.49.49 0 0 1 0-.98h28.56a.49.49 0 0 1 0 .98zm0-3.65H17.72a.49.49 0 0 1-.49-.49c0-.28.22-.5.49-.5h28.56c.27 0 .49.22.49.5 0 .27-.22.49-.49.49zM44.27.99H16.04v7.44c0 .02.01.03.01.04 0 .01-.01.03-.01.04v12.31h31.92V4.67L44.27.99zM20.55 5.81h17.98a.49.49 0 0 1 0 .98H20.55a.49.49 0 0 1 0-.98zm22.9 13.01h-22.9a.49.49 0 0 1 0-.98h22.9a.49.49 0 0 1 0 .98zm0-4.01h-22.9a.49.49 0 0 1 0-.98h22.9a.49.49 0 0 1 0 .98zm0-4.01h-22.9a.49.49 0 0 1 0-.98h22.9a.49.49 0 0 1 0 .98z"></path>
  <path fill="#2b2f64" d="M50.19 23.94h-5.02c-.98 0-1.78.8-1.78 1.78s.8 1.78 1.78 1.78h5.02c.98 0 1.78-.8 1.78-1.78s-.8-1.78-1.78-1.78zm0 2.58h-5.02c-.44 0-.79-.36-.79-.8 0-.44.35-.8.79-.8h5.02c.44 0 .8.36.8.8 0 .44-.36.8-.8.8z"></path>
  <path fill="#ededee" d="M50.99 25.72c0 .44-.36.8-.8.8h-5.02c-.44 0-.79-.36-.79-.8 0-.44.35-.8.79-.8h5.02c.44 0 .8.36.8.8z"></path>
  <path fill="#2b2f64" d="M39.73 23.94h-5.02c-.98 0-1.78.8-1.78 1.78s.8 1.78 1.78 1.78h5.02c.98 0 1.78-.8 1.78-1.78s-.8-1.78-1.78-1.78zm0 2.58h-5.02c-.44 0-.79-.36-.79-.8 0-.44.35-.8.79-.8h5.02c.44 0 .8.36.8.8 0 .44-.36.8-.8.8z"></path>
  <path fill="#f26e62" d="M40.53 25.72c0 .44-.36.8-.8.8h-5.02c-.44 0-.79-.36-.79-.8 0-.44.35-.8.79-.8h5.02c.44 0 .8.36.8.8z"></path>
  <path fill="#2b2f64" d="M55.92 23.94c-.98 0-1.78.8-1.78 1.78s.8 1.78 1.78 1.78 1.78-.8 1.78-1.78-.8-1.78-1.78-1.78zm0 2.58c-.44 0-.79-.36-.79-.8a.794.794 0 1 1 1.59 0c0 .44-.36.8-.8.8z"></path>
  <path fill="#f26e62" d="M56.72 25.72a.794.794 0 1 1-1.59 0 .794.794 0 1 1 1.59 0z"></path>
  <path fill="#2b2f64" d="M39.02 6.3c0 .27-.22.49-.49.49H20.55a.49.49 0 0 1 0-.98h17.98c.27 0 .49.22.49.49zm4.92 4.01c0 .27-.22.49-.49.49h-22.9a.49.49 0 0 1 0-.98h22.9c.27 0 .49.22.49.49zm0 4.01c0 .27-.22.49-.49.49h-22.9a.49.49 0 0 1 0-.98h22.9c.27 0 .49.22.49.49zm0 4.01c0 .27-.22.49-.49.49h-22.9a.49.49 0 0 1 0-.98h22.9c.27 0 .49.22.49.49z"></path>
</svg>
