<?xml version="1.0" standalone="no"?>
<!DOCTYPE svg PUBLIC "-//W3C//DTD SVG 20010904//EN"
 "http://www.w3.org/TR/2001/REC-SVG-20010904/DTD/svg10.dtd">
<svg version="1.0" xmlns="http://www.w3.org/2000/svg"
 width="318.000000pt" height="159.000000pt" viewBox="0 0 318.000000 159.000000"
 preserveAspectRatio="xMidYMid meet">

<g transform="translate(0.000000,159.000000) scale(0.100000,-0.100000)"
fill="#000000" stroke="none">
<path d="M700 1540 c-96 -13 -177 -38 -250 -76 -114 -60 -113 -59 -119 -162
l-6 -90 35 -6 c85 -14 167 -7 219 20 151 75 336 61 475 -36 l58 -41 -3 84 -4
85 65 6 c36 3 82 6 103 6 l39 0 -53 45 c-144 122 -371 190 -559 165z m90 -138
c0 -40 -3 -49 -17 -49 -10 0 -23 4 -30 9 -8 7 -18 5 -28 -6 -20 -19 -27 -20
-43 -4 -18 18 -14 46 7 58 15 7 23 6 34 -5 13 -13 16 -13 21 0 3 8 12 15 21
15 8 0 15 7 15 15 0 8 5 15 10 15 6 0 10 -22 10 -48z m68 -4 c2 -13 -3 -18
-20 -19 -23 -1 -23 -1 2 -8 17 -5 21 -9 12 -15 -21 -13 -52 4 -52 28 0 12 3
26 7 30 13 13 48 1 51 -16z m-208 -8 c0 -5 -7 -10 -15 -10 -8 0 -15 -7 -15
-16 0 -11 6 -14 21 -9 16 5 20 3 17 -6 -3 -8 -15 -14 -29 -14 -24 0 -36 23
-25 51 6 16 46 20 46 4z"/>
<path d="M685 1390 c-4 -6 -3 -16 3 -22 13 -13 23 4 13 21 -7 10 -10 10 -16 1z"/>
<path d="M750 1385 c0 -8 5 -15 10 -15 6 0 10 7 10 15 0 8 -4 15 -10 15 -5 0
-10 -7 -10 -15z"/>
<path d="M2315 1540 c-93 -10 -145 -25 -235 -66 -71 -33 -210 -129 -210 -146
0 -4 45 -8 100 -8 l100 0 -7 -91 -6 -91 54 41 c30 23 79 51 109 63 76 29 214
36 299 14 l63 -16 69 37 c78 42 75 30 40 156 l-18 62 -74 21 c-90 26 -190 34
-284 24z m-21 -107 c4 -21 9 -46 12 -55 3 -11 -1 -17 -13 -17 -10 -1 -31 -2
-48 -3 -27 -3 -30 0 -33 28 -3 33 14 49 43 38 22 -9 18 -33 -7 -44 -13 -5 -18
-9 -11 -9 35 -2 44 11 37 55 -8 54 11 60 20 7z m60 11 c10 -4 16 -18 16 -41 0
-32 -2 -34 -27 -31 -31 3 -43 38 -23 64 14 16 13 16 34 8z m84 -37 c3 -37 2
-38 -25 -35 -23 2 -28 8 -29 33 -2 39 3 47 29 43 18 -2 23 -11 25 -41z m66 10
c-2 -21 12 -22 20 -1 9 24 50 14 54 -13 3 -18 -2 -23 -20 -24 -17 -1 -18 -3
-5 -6 9 -2 17 -9 17 -14 0 -15 -36 -10 -50 6 -9 11 -16 12 -25 5 -20 -17 -45
-1 -43 28 2 38 7 44 31 40 14 -2 21 -10 21 -21z m-308 -47 c2 -48 -10 -52 -25
-9 -11 33 -7 49 12 49 8 0 13 -16 13 -40z"/>
<path d="M2338 1393 c7 -3 16 -2 19 1 4 3 -2 6 -13 5 -11 0 -14 -3 -6 -6z"/>
<path d="M2465 1390 c3 -5 11 -10 16 -10 6 0 7 5 4 10 -3 6 -11 10 -16 10 -6
0 -7 -4 -4 -10z"/>
<path d="M2740 1448 c0 -7 7 -38 15 -68 24 -90 23 -92 -55 -130 l-70 -34 32
-25 c103 -78 168 -180 194 -305 13 -59 13 -85 4 -154 -12 -82 -12 -83 20 -161
l33 -79 78 33 c119 51 115 48 130 117 17 76 17 243 1 317 -27 119 -103 265
-180 348 -74 78 -202 168 -202 141z m205 -318 c3 -5 12 -7 20 -3 28 10 15 -12
-21 -35 -28 -18 -39 -21 -50 -11 -17 14 -18 31 -2 47 14 14 44 16 53 2z m35
-65 c10 -12 10 -18 -1 -32 -12 -15 -12 -16 3 -11 16 7 28 -9 28 -38 0 -22 -42
-35 -61 -18 -8 8 -21 14 -27 14 -22 0 -12 18 13 24 29 7 32 18 8 37 -16 13
-17 12 -4 -3 11 -16 11 -18 -2 -18 -20 0 -30 29 -16 46 15 18 43 18 59 -1z
m70 -108 c0 -8 -19 -18 -45 -24 -58 -13 -57 5 1 23 21 6 40 12 42 13 1 1 2 -5
2 -12z m-14 -52 c8 -20 -13 -45 -38 -45 -21 0 -33 22 -24 45 7 20 55 19 62 0z
m4 -53 c0 -4 -5 -13 -12 -20 -9 -9 -8 -12 5 -12 9 0 17 -5 17 -11 0 -11 -51
-4 -82 13 -25 12 -23 31 2 23 11 -3 28 -2 37 4 22 13 33 14 33 3z"/>
<path d="M2900 1110 c0 -5 7 -10 15 -10 8 0 15 5 15 10 0 6 -7 10 -15 10 -8 0
-15 -4 -15 -10z"/>
<path d="M2965 990 c-3 -5 1 -10 9 -10 9 0 16 5 16 10 0 6 -4 10 -9 10 -6 0
-13 -4 -16 -10z"/>
<path d="M2990 890 c0 -5 4 -10 9 -10 6 0 13 5 16 10 3 6 -1 10 -9 10 -9 0
-16 -4 -16 -10z"/>
<path d="M231 1294 c-163 -178 -227 -441 -166 -679 40 -157 165 -336 294 -423
l59 -39 89 30 c48 17 89 31 90 32 2 1 -11 42 -28 92 -26 80 -35 94 -68 116
-84 56 -162 186 -183 305 -22 130 16 264 106 375 l46 57 -64 0 c-35 0 -78 3
-96 7 l-33 6 7 89 c4 48 5 88 2 88 -2 0 -27 -25 -55 -56z m-13 -481 c-2 -22
-9 -29 -31 -31 -22 -3 -30 1 -34 17 -3 12 -12 21 -19 21 -8 0 -14 5 -14 10 0
6 23 10 51 10 49 0 50 -1 47 -27z m2 -52 c0 -9 -80 -22 -92 -15 -5 3 -6 10 -3
15 8 11 95 12 95 0z m5 -31 c4 -6 -6 -10 -22 -11 -15 0 -38 -2 -50 -5 -13 -2
-23 0 -23 5 0 17 85 27 95 11z m5 -45 c0 -18 -7 -28 -26 -36 -15 -5 -29 -7
-31 -5 -8 8 8 26 23 26 8 0 14 5 14 10 0 6 -11 8 -25 4 -14 -4 -25 -2 -25 4 0
12 17 20 48 21 17 1 22 -4 22 -24z m23 -74 c4 -15 -4 -21 -39 -31 -42 -12 -75
-7 -42 5 10 4 14 14 11 26 -4 13 2 21 18 28 27 10 44 0 52 -28z"/>
<path d="M170 810 c0 -5 7 -10 15 -10 8 0 15 5 15 10 0 6 -7 10 -15 10 -8 0
-15 -4 -15 -10z"/>
<path d="M200 610 c0 -5 7 -10 15 -10 8 0 15 5 15 10 0 6 -7 10 -15 10 -8 0
-15 -4 -15 -10z"/>
<path d="M730 893 c-27 -10 -40 -36 -40 -85 0 -40 4 -50 25 -64 28 -18 71 -9
89 19 15 24 -1 33 -23 13 -41 -37 -84 9 -62 67 12 30 48 38 57 12 8 -19 34
-20 34 -1 0 25 -50 50 -80 39z"/>
<path d="M2297 879 c-22 -16 -27 -29 -27 -63 0 -23 6 -51 14 -61 24 -34 106
-17 106 21 0 19 -17 18 -28 -2 -5 -9 -18 -14 -33 -12 -22 3 -24 8 -24 53 0 45
2 50 24 53 15 2 28 -3 33 -12 11 -20 28 -21 28 -2 0 36 -59 53 -93 25z"/>
<path d="M840 815 c0 -60 3 -75 15 -75 12 0 15 15 15 75 0 60 -3 75 -15 75
-12 0 -15 -15 -15 -75z"/>
<path d="M2420 815 l0 -75 40 0 c50 0 80 27 80 73 0 53 -24 77 -76 77 l-44 0
0 -75z m78 43 c7 -7 12 -26 12 -43 0 -35 -15 -55 -42 -55 -15 0 -18 9 -18 55
0 46 3 55 18 55 10 0 23 -5 30 -12z"/>
<path d="M2803 561 c-80 -136 -237 -231 -384 -231 -60 0 -65 -2 -136 -55 l-73
-56 52 -75 c29 -42 62 -81 72 -86 23 -13 143 -3 236 18 36 8 108 36 160 61 80
40 109 61 185 137 63 64 101 113 128 164 21 39 35 72 30 72 -4 0 -45 -16 -91
-37 -45 -20 -85 -34 -88 -31 -3 3 -20 39 -38 81 l-32 74 -21 -36z m39 -196 c9
-21 9 -29 -4 -41 -12 -13 -20 -14 -37 -5 -20 11 -29 50 -14 64 15 15 44 5 55
-18z m-88 -11 c9 -3 14 -10 11 -14 -3 -5 5 -16 17 -24 17 -12 19 -19 10 -28
-9 -9 -17 -5 -37 16 -14 15 -25 34 -25 42 0 16 2 16 24 8z m6 -83 c0 -4 -11
-13 -24 -19 -31 -14 -56 9 -36 32 10 13 8 13 -13 3 -20 -9 -23 -15 -16 -29 11
-21 12 -38 1 -38 -12 0 -43 70 -32 72 6 0 16 1 23 2 6 1 21 10 31 20 19 19 20
19 43 -8 12 -15 23 -31 23 -35z m-124 -13 c4 -6 -2 -18 -12 -26 -18 -13 -18
-14 5 -7 17 5 22 4 19 -6 -3 -8 -18 -14 -34 -14 -30 0 -42 20 -30 51 6 17 42
19 52 2z m-65 -35 c9 -23 7 -30 -10 -44 -12 -10 -21 -22 -21 -28 0 -26 -18 -8
-24 25 -4 19 -9 41 -12 49 -5 12 11 21 44 24 7 0 17 -11 23 -26z m-73 -25 c4
-35 -29 -56 -52 -32 -17 16 -21 46 -9 58 4 4 19 6 33 4 19 -2 26 -10 28 -30z"/>
<path d="M2530 210 c0 -19 11 -26 23 -14 8 8 -3 34 -14 34 -5 0 -9 -9 -9 -20z"/>
<path d="M2452 194 c4 -21 22 -23 26 -1 2 10 -3 17 -13 17 -10 0 -15 -6 -13
-16z"/>
</g>
</svg>
